<?xml version="1.0" encoding="UTF-8"?>
<!DOCTYPE svg PUBLIC "-//W3C//DTD SVG 1.1//EN" "http://www.w3.org/Graphics/SVG/1.1/DTD/svg11.dtd">
<!-- Creator: CorelDRAW 2018 (64-Bit) -->
<svg xmlns="http://www.w3.org/2000/svg" xml:space="preserve" width="67.7334mm" height="67.7334mm" version="1.1" style="shape-rendering:geometricPrecision; text-rendering:geometricPrecision; image-rendering:optimizeQuality; fill-rule:evenodd; clip-rule:evenodd"
viewBox="0 0 5038.32 5038.32"
 xmlns:xlink="http://www.w3.org/1999/xlink">
 <defs>
  <style type="text/css">
   <![CDATA[
    .fil0 {fill:whitesmoke}
    .fil1 {fill:#336791}
    .fil3 {fill:white}
    .fil2 {fill:white;fill-rule:nonzero}
   ]]>
  </style>
 </defs>
 <g id="Слой_x0020_1">
  <metadata id="CorelCorpID_0Corel-Layer"/>
  <path class="fil0" d="M1180.86 0l2676.61 0c652.06,0 1180.86,528.8 1180.86,1180.86l0 2676.61c0,652.05 -528.8,1180.85 -1180.86,1180.85l-2676.61 0.01c-652.05,-0.01 -1180.85,-528.81 -1180.85,-1180.86l-0.01 -2676.6c0.01,-652.06 528.81,-1180.86 1180.86,-1180.86z"/>
  <g id="_2381466799360">
   <path class="fil1" d="M4398.52 3050.35c-507.45,104.64 -544.31,-67.25 -544.31,-67.25 536.07,-795.45 760.3,-1805.1 566.79,-2052.17 -527.46,-674.27 -1440.72,-355.22 -1456,-346.97l-4.92 0.88c-111.54,-22.37 -224.95,-34.19 -338.72,-35.29 -229.68,-3.51 -403.86,60.23 -536.25,160.48 0,0 -1629.16,-671.12 -1553.3,844.07 16.16,322.4 461.81,2440.74 993.86,1799.83 195.95,-235.65 383.83,-433.56 383.83,-433.56 93.07,61.98 204.92,93.61 322.05,82.19l9.11 -7.72c-2.67,30.34 -1.42,60.91 3.7,90.95 -136.96,153.11 -96.58,179.99 -370.51,236.34 -277.08,57.07 -114.13,158.73 -8.07,185.43 128.9,32.31 427.05,77.96 628.63,-204.04l-8.09 32.12c53.74,43.02 91.3,279.72 84.98,494.29 -6.32,214.59 -10.54,361.74 31.61,476.91 42.13,115.2 84.29,374.03 444.25,298.51 300.8,-64.42 456.54,-231.77 478.49,-510.25 15.46,-198.09 50.22,-168.95 52.69,-345.93l28.1 -83.94c32.1,-268.66 5.24,-355.22 190.49,-314.84l45.12 4.05c136.46,6.14 315.03,-21.96 419.67,-70.61 225.63,-104.64 359.45,-279.54 136.96,-233.52l-0.18 0z"/>
   <path class="fil2" d="M2989.42 585.34c-3.56,2.54 -7.58,4.56 -11.98,5.93 -3.09,0.97 -5.71,1.62 -7.47,1.93l-2.68 0.38c-7.77,1.26 50.7,-13.78 41.88,-12.78 -65.53,14.42 -97.93,12.82 -108.67,3.32 -68.76,-5.73 -147.18,-17.09 98.76,-89.7 34.4,-10.15 84.95,-23.43 147.13,-35.5 308.6,-59.91 910.36,-92.4 1306.07,413.06 109.43,139.97 98.86,492.72 -17.09,912.54 -103.46,374.61 -289.94,806.69 -547.89,1189.43 -13.12,19.44 -39.53,24.58 -58.97,11.46 -19.44,-13.11 -24.58,-39.52 -11.46,-58.96 252.77,-375.05 435.37,-798.03 536.6,-1164.52 109.06,-394.82 124.89,-719.03 32.04,-837.79 -367.63,-469.62 -933.04,-438.2 -1223.34,-381.85 -59.35,11.52 -106.97,24.01 -139.17,33.51 -11.92,3.52 -23.12,6.67 -33.76,9.54zm-432.21 2636.96c-5.93,243.23 -4.34,484.73 4.72,679.53 8.76,188.01 24.07,330.1 45.78,383.79 22.76,56.35 58.51,140.25 128.17,199.06 68.46,57.79 172.94,93.37 337.44,58.25 141.79,-30.38 237.53,-73.99 302.14,-141.13 64.31,-66.86 100.32,-159.97 122.59,-289.3l105.25 -833.88 -1046.09 -56.32zm-79.98 683.19c-9.66,-207.41 -10.89,-467.7 -3.64,-727.28l0.05 -2.75c1.18,-23.39 21.12,-41.38 44.5,-40.19l1135.02 61.11 3.15 0.33c23.21,2.93 39.64,24.13 36.71,47.33l-110.74 877.95c-0.09,1.59 -0.27,3.21 -0.54,4.81 -25.16,146.15 -67.65,253.24 -145.16,333.81 -77.22,80.26 -186.65,131.32 -345.66,165.38 -195.63,41.77 -323.67,-3.76 -409.85,-76.51 -84.97,-71.74 -126.06,-167.85 -152.09,-232.29 -25.34,-62.7 -42.57,-214.57 -51.75,-411.7zm-437.87 -3204.98c-214.77,-79.43 -1533.68,-514.29 -1466.94,818.57 8.82,176.2 147.88,896.31 359.7,1398.2 67.24,159.32 141.49,295.65 220.6,383.39 70.5,78.2 143.53,115.24 216.38,89.22 39.04,-13.94 79.81,-44.96 122.19,-96l-0.1 -0.08c166.93,-201.21 320.66,-365.4 361.43,-408.46l186.72 -2184.84zm-1551.64 822.56c-77.37,-1545.33 1530.54,-922.55 1609.05,-891.3 18.74,5.68 31.66,23.83 29.99,44.15l-190.69 2231.25 -0.09 -0.01c-0.77,9.39 -4.66,18.59 -11.69,25.92 -0.51,0.52 -173.95,181.4 -367.64,414.87l-0.1 -0.08 -0.06 0.08c-52.82,63.63 -105.92,103.11 -158.81,122 -110.74,39.54 -213.85,-7.97 -308.07,-112.48 -85.62,-94.97 -164.75,-239.55 -235.54,-407.31 -215.62,-510.88 -357.31,-1246.64 -366.34,-1427.1z"/>
   <path class="fil2" d="M3811.07 2959.49c-0.74,-3.18 -1.09,-6.35 -1.12,-9.48 -7.8,-19.09 -26.87,-42.9 -50.33,-72.18 -41.16,-51.36 -93.85,-117.13 -135.32,-218.07 -6.93,-16.78 -26.42,-51.72 -52.23,-97.98 -107.29,-192.31 -318.72,-571.28 -277.92,-826.41 28.97,-181.15 172.56,-299.12 537.06,-253.32 -3.37,-11.42 -7.81,-25.13 -13.35,-40.94 -17.22,-49.09 -44.79,-113.21 -84.11,-184.89 -157.64,-287.37 -501.51,-688.59 -1113.07,-697.53 -939.25,-13.75 -909.44,1162.56 -909.39,1165.94 0.36,23.39 -18.3,42.65 -41.69,43.02 -23.39,0.36 -42.65,-18.3 -43.02,-41.69 -0.06,-3.62 -32.28,-1267.02 995.09,-1251.97 652.9,9.55 1018.94,435.96 1186.49,741.38 41.56,75.78 71.08,144.6 89.75,197.85 20.31,57.95 28.15,101.85 25.36,120.01 -3.46,22.11 -15.6,35.66 -36.38,39.91l-15.12 0.33c-341.51,-54.61 -471.23,33.35 -493.91,175.21 -36.17,226.2 165.81,588.22 268.3,771.93 27.14,48.65 47.64,85.39 56.55,106.95 36.74,89.45 85.19,149.92 123.03,197.15 34.15,42.61 60.87,75.97 69.82,116.03l1.43 7.3c14.63,26.85 93.11,109.52 491.32,27.4 58.75,-12.15 99.57,-10.08 124.82,2.01 29.4,14.07 41.98,37.36 39.97,67.33 -1.32,19.72 -10.73,41.35 -26.94,63.6 -40.48,55.48 -133.97,127.47 -248.57,180.67 -85.7,39.83 -216.85,66.61 -337.39,73.56 -70.76,4.08 -138.51,1.44 -192.16,-9.25 -63.26,-12.61 -110.65,-37.76 -129.35,-77.98 -4.75,-10.21 -7.56,-21.24 -8.24,-33.09 -13.56,-236.66 105.78,-270.17 182.26,-291.63 7.21,-2.02 15.96,9.96 19.24,12 -0.61,-1.97 -0.86,-3.1 -0.87,-3.15zm594.18 98.97c-344.64,71.08 -490.6,14.45 -551.59,-37.88 -11.27,4.28 -24.15,7.88 -38.03,11.78 -50.83,14.27 -130.14,36.54 -120.47,205.26 0.04,0.68 0.25,1.44 0.61,2.21 5.87,12.63 31.6,22.7 68.89,30.13 46.9,9.34 107.22,11.58 170.89,7.92 110.82,-6.4 230.09,-30.4 306.5,-65.93 101.83,-47.27 182.62,-108.12 215.67,-153.43 1.92,-2.63 3.59,-5.05 5.01,-7.26 -12.36,-0.44 -31.21,1.76 -57.48,7.19z"/>
   <path class="fil2" d="M2268.2 3087.84c-24.82,28.07 -44.75,53.39 -61.69,74.91 -73.49,93.4 -96.3,122.37 -327.67,169.99 -65.68,13.52 -101.56,28.11 -116.88,42.5 -1.39,1.3 -2.58,-2.19 -2.35,-0.63 0.28,1.88 3.53,5.65 8.66,10.49 23.36,22.03 67.43,41.06 104.3,50.34 60.82,15.25 161.41,33.67 269.61,15.17 106.37,-18.2 221.23,-72.68 314.17,-202.79 3.99,-5.59 7.19,-11.4 9.63,-17.32 11.11,-26.93 8.9,-59.25 -1.87,-89.41 -11.24,-31.47 -31.26,-59.53 -55.12,-76.58 -6.23,-4.44 -12.55,-8.06 -18.83,-10.64 -15.78,-6.53 -34.16,-13.9 -51.83,-12.35 -17.69,1.55 -38.98,12.18 -65.38,41.77 -1.48,1.67 -3.06,3.18 -4.74,4.56zm-128.46 22.43c17.41,-22.12 38.01,-48.31 68.56,-82.51 1.44,-1.73 3.01,-3.34 4.68,-4.8 42.18,-45.83 81.86,-62.97 118.04,-66.15 37.19,-3.27 66.43,8.35 91.36,18.66 12.57,5.18 24.57,11.93 35.77,19.94 37.97,27.12 69.2,70.02 86.01,117.1 17.28,48.39 19.96,102.34 0.22,150.2 -4.95,12.01 -11.24,23.51 -18.93,34.28 -108.64,152.09 -243.68,215.9 -368.98,237.33 -123.49,21.13 -236.44,0.58 -304.49,-16.49 -48.25,-12.14 -107.67,-38.7 -141.84,-70.93 -18.57,-17.52 -31.26,-37.65 -34.57,-59.98 -3.83,-25.81 4.15,-50.83 28.26,-73.45 25.94,-24.35 75.37,-46.73 158.07,-63.76 200.6,-41.29 218.9,-64.53 277.84,-139.43z"/>
   <path class="fil2" d="M2273.77 3045.73c3.57,23.12 -12.27,44.76 -35.38,48.34 -23.11,3.58 -44.76,-12.26 -48.34,-35.37 -2.18,-13.95 -3.19,-28.09 -3.21,-42.44 -26.38,0.28 -52.4,-1.44 -77.88,-5.01 -129.61,-18.13 -247.07,-83.82 -335.4,-180.57 -87.7,-96.06 -146.8,-223.05 -160.46,-364.58 -4.88,-50.48 -3.97,-102.67 3.45,-155.78 31.11,-223.61 19.09,-423.17 12.98,-524.73 -1.67,-27.63 -2.92,-48.52 -2.92,-60.3 0,-35.14 98.16,-116.37 227.86,-169.41 59.86,-24.48 126.8,-45.22 193.18,-55.31 68.81,-10.47 138.02,-9.77 200.27,9.28 96.8,29.63 173.98,101.11 203.75,238.77 111.02,513.79 11.88,733.86 -65.65,905.94 -14.42,32 -28.07,62.3 -38.4,90.07l-9.77 26.24c-40.53,108.55 -75.44,202.07 -64.07,274.87zm-76.96 -114.49c12.73,-58.93 36.17,-121.75 61.64,-189.95l9.77 -26.24c12.24,-32.88 25.93,-63.27 40.4,-95.38 72.47,-160.86 165.13,-366.57 60.01,-853.12 -22.14,-102.38 -77.01,-154.76 -145.29,-175.66 -48.69,-14.91 -105.36,-15.06 -163.05,-6.29 -60.12,9.14 -120.33,27.76 -173.92,49.67 -99.44,40.66 -174.71,81.99 -174.71,91.01 0,12.5 1.12,30.95 2.58,55.32 6.29,104.35 18.63,309.38 -13.63,541.33 -6.54,46.74 -7.36,92.35 -3.12,136.19 11.82,122.41 62.97,232.27 138.88,315.42 75.27,82.45 174.83,138.36 284.22,153.66 24.99,3.5 50.47,4.89 76.22,4.03z"/>
   <path class="fil3" d="M2078.45 1716.32c-3.01,20.54 37.73,75.5 90.6,82.88 52.84,7.37 97.96,-35.47 100.96,-56.2 2.98,-20.72 -37.76,-43.19 -90.6,-50.56 -52.87,-7.38 -98.35,3.51 -100.96,23.88l0 0z"/>
   <path class="fil2" d="M2092.47 1718.42l-0.01 0.08c-0.76,6.49 7.16,20.31 20.48,34.33 14.45,15.2 34.84,28.97 57.56,32.28l0.49 0.08c19.09,2.66 37.17,-2.5 51.83,-10.66 18.95,-10.54 31.68,-24.84 33.13,-33.24l0.04 -0.28c0.54,-3.89 -6.01,-9.65 -17,-15.79 -14.8,-8.29 -36.23,-15.13 -60.69,-18.62l-3.44 -0.49c-23.99,-3.08 -46,-2.16 -62.2,1.81 -11.72,2.86 -19.27,6.38 -20.12,9.9l-0.08 0.6zm-28.05 -4.13l0.01 -0.08c2.29,-16.27 17.97,-27.99 41.48,-33.77 19.3,-4.75 45.02,-5.91 72.56,-2.38l3.83 0.49c27.88,3.98 52.78,12.05 70.45,21.94 21.38,11.95 33.5,27.59 31.32,44.18l-0.03 0.34c-2.24,15.43 -20.66,39.33 -47.47,54.25 -19.4,10.8 -43.55,17.58 -69.46,13.98l-0.55 -0.08c-29.88,-4.35 -55.97,-21.71 -74.12,-40.81 -19.08,-20.07 -29.88,-43.56 -28.04,-57.69l0.03 -0.36z"/>
   <path class="fil3" d="M3687.56 1674.34c2.8,20.55 -37.75,75.52 -90.6,82.89 -52.87,7.38 -98.34,-35.47 -100.96,-56.19 -2.65,-20.72 37.77,-43.2 90.6,-50.57 52.84,-7.38 98.32,3.51 100.96,23.87z"/>
   <path class="fil2" d="M3694.55 1673.41c1.85,13.56 -11.32,38.92 -33.52,59.22 -16.69,15.27 -38.62,28.17 -63.11,31.58l-1.22 0.16c-28.06,3.53 -53.97,-5.93 -73.22,-19.01 -19.67,-13.37 -32.73,-31.09 -34.43,-43.11l-0.04 -0.34c-1.72,-13.48 9.09,-26.74 28.02,-37.3 17.08,-9.54 41.3,-17.34 68.6,-21.15l2.28 -0.3c26.77,-3.47 51.67,-2.4 70.32,2.16 20.7,5.05 34.44,14.75 36.3,27.88l0.02 0.21zm-43.02 48.84c18.86,-17.26 30.29,-37.17 29.04,-46.88l-0.02 -0.13c-0.94,-6.89 -10.68,-12.58 -25.64,-16.22 -17.06,-4.17 -40.12,-5.13 -65.12,-1.88l-2.23 0.3c-25.57,3.58 -48.04,10.76 -63.68,19.49 -13.69,7.65 -21.71,15.94 -20.89,23.1l0.04 0.22c1.21,8.64 11.94,22.29 28.36,33.44 16.83,11.44 39.36,19.73 63.49,16.7l1.12 -0.16c21.37,-2.98 40.71,-14.42 55.54,-27.99z"/>
   <path class="fil2" d="M3834.16 1534.11c-1.19,-23.39 16.8,-43.32 40.2,-44.51 23.39,-1.18 43.32,16.8 44.51,40.2 5.11,94.33 -6.69,170.74 -19.1,250.97 -9.27,60.04 -18.92,122.38 -21.3,195.71 -2.22,68.78 6.74,143.33 15.95,220.01 23.7,197.23 49.03,407.93 -95.62,624.02 -13.02,19.44 -39.36,24.65 -58.8,11.63 -19.44,-13.02 -24.65,-39.36 -11.63,-58.8 127.01,-189.73 103.59,-384.53 81.67,-566.88 -9.51,-79.14 -18.75,-156.09 -16.28,-232.63 2.55,-78.22 12.62,-143.32 22.31,-206.02 11.67,-75.49 22.77,-147.37 18.1,-233.69z"/>
  </g>
 </g>
</svg>
